<svg width="107" height="23" viewBox="0 0 107 23" fill="none" xmlns="http://www.w3.org/2000/svg">
<g clip-path="url(#clip0_668_7897)">
<path d="M21.9794 14.8978C20.588 19.4595 16.4607 22.8144 11.5183 22.9217C5.33272 23.0536 0.210333 18.0488 0.0787569 11.7407C-0.052819 5.43406 4.85481 0.213059 11.0404 0.0796585C13.5797 0.0259919 15.939 0.835592 17.8476 2.24779L15.1495 4.98326C13.9668 4.25799 12.5754 3.85473 11.0933 3.88539C6.91466 3.97433 3.59804 7.50253 3.68727 11.7652C3.7765 16.0263 7.23679 19.4104 11.417 19.3184C14.3842 19.254 16.9175 17.4585 18.1047 14.8963H21.9809L21.9794 14.8978Z" fill="white"/>
<path d="M20.4886 4.99707L17.7996 7.72334C17.1553 6.59634 16.2419 5.65334 15.1484 4.98327L17.8465 2.2478C18.8719 3.00374 19.7657 3.93447 20.4886 4.99707Z" fill="white"/>
<path d="M13.151 12.4351C13.3808 12.0947 13.5154 11.6838 13.5154 11.2406C13.5154 10.0676 12.5778 9.11695 11.4208 9.11695C11.2892 9.11695 11.1607 9.12922 11.0352 9.15375L15.1473 4.98462C16.2407 5.65315 17.1542 6.59769 17.7985 7.72469L13.151 12.4366V12.4351Z" fill="white"/>
<path d="M9.69088 12.4351L8.74414 11.4753L9.3627 10.8481C9.3385 10.9739 9.3264 11.1057 9.3264 11.2391C9.3264 11.6823 9.45949 12.0932 9.69088 12.4336V12.4351Z" fill="white"/>
<path d="M13.5154 11.2391C13.5154 11.6822 13.3823 12.0932 13.1509 12.4336L12.5989 12.9932C12.2632 13.2263 11.8579 13.3628 11.4208 13.3628C10.9837 13.3628 10.5784 13.2278 10.2427 12.9932L9.69065 12.4336C9.46077 12.0932 9.32617 11.6822 9.32617 11.2391C9.32617 11.1057 9.33827 10.9754 9.36247 10.8481L11.0367 9.15069C11.1607 9.12616 11.2907 9.11389 11.4223 9.11389C12.5793 9.11389 13.5169 10.0646 13.5169 11.2376L13.5154 11.2391Z" fill="white"/>
<path d="M9.69141 12.4351L10.2434 12.9947C10.0272 12.846 9.83811 12.6543 9.69141 12.4351Z" fill="white"/>
<path d="M13.1516 12.4351C13.0049 12.6543 12.8159 12.846 12.5996 12.9947L13.1516 12.4351Z" fill="white"/>
<path d="M28.6945 0.0766602V5.91253C26.5651 7.64979 25.1934 10.3684 25.1934 13.4213V0.0766602H28.6945Z" fill="white"/>
<path d="M43.2628 5.11816V13.4212C43.2628 10.3668 41.8911 7.6497 39.7617 5.91243V2.58203C39.7617 4.09543 40.899 5.32056 42.3025 5.32056C42.6428 5.32056 42.9664 5.2485 43.2628 5.11816Z" fill="white"/>
<path d="M43.2628 0.0766602V5.11826C42.9664 5.24859 42.6428 5.32066 42.3025 5.32066C40.899 5.32066 39.7617 4.09399 39.7617 2.58213C39.7617 1.46279 40.2139 0.309727 41.2771 0.0766602H43.2628Z" fill="white"/>
<path d="M28.6945 5.91248V20.9315C26.5651 19.1942 25.1934 16.4756 25.1934 13.4227C25.1934 10.3699 26.5651 7.65128 28.6945 5.91401V5.91248Z" fill="white"/>
<path d="M39.7628 14.0623V20.9301C38.2338 22.1767 36.3131 22.9203 34.2291 22.9203C32.145 22.9203 30.2243 22.1782 28.6953 20.9301V14.0623C28.6953 17.2163 31.1726 19.7739 34.2291 19.7739C37.2856 19.7739 39.7628 17.2163 39.7628 14.0623Z" fill="white"/>
<path d="M43.2628 13.4213C43.2628 16.4757 41.8911 19.1928 39.7617 20.9301V5.9126C41.8911 7.64986 43.2628 10.3685 43.2628 13.4213Z" fill="white"/>
<path d="M84.8955 22.8634V17.0858C82.7495 15.3654 81.3672 12.6744 81.3672 9.65222V22.8634H84.8955Z" fill="white"/>
<path d="M99.5752 17.8723V9.6521C99.5752 12.6758 98.1929 15.3653 96.0469 17.0857V20.3824C96.0469 18.8843 97.1932 17.6714 98.6073 17.6714C98.9506 17.6714 99.2758 17.7435 99.5752 17.8723Z" fill="white"/>
<path d="M99.5752 22.8635V17.8725C99.2773 17.7437 98.9506 17.6716 98.6073 17.6716C97.1932 17.6716 96.0469 18.886 96.0469 20.3826C96.0469 21.4912 96.5021 22.632 97.5744 22.8635H99.5752Z" fill="white"/>
<path d="M84.8955 17.0858V2.21863C82.7495 3.93903 81.3672 6.63003 81.3672 9.65223C81.3672 12.6744 82.7495 15.3654 84.8955 17.0858Z" fill="white"/>
<path d="M96.0467 9.01742V2.21862C94.5056 0.984291 92.5713 0.248291 90.4706 0.248291C88.37 0.248291 86.4356 0.982758 84.8945 2.21862V9.01742C84.8945 5.89556 87.3914 3.36402 90.4706 3.36402C93.5498 3.36402 96.0467 5.89556 96.0467 9.01742Z" fill="white"/>
<path d="M99.5752 9.65235C99.5752 6.62862 98.1929 3.93915 96.0469 2.21875V17.0875C98.1929 15.3671 99.5752 12.6761 99.5752 9.65388V9.65235Z" fill="white"/>
<path d="M67.5905 0.0766602C61.5365 0.0766602 56.6289 5.19033 56.6289 11.4985C56.6289 17.8066 61.5365 22.9203 67.5905 22.9203C73.6446 22.9203 78.5522 17.8066 78.5522 11.4985C78.5522 5.19033 73.6446 0.0766602 67.5905 0.0766602ZM67.6042 19.8597C63.5314 19.8597 60.2283 16.169 60.2283 11.6165C60.2283 7.06406 63.5314 3.37333 67.6042 3.37333C71.677 3.37333 74.9785 7.06406 74.9785 11.6165C74.9785 16.169 71.677 19.8597 67.6042 19.8597Z" fill="white"/>
<path d="M104.853 22.888C106.038 22.888 106.999 21.9138 106.999 20.7122C106.999 19.5105 106.038 18.5364 104.853 18.5364C103.668 18.5364 102.707 19.5105 102.707 20.7122C102.707 21.9138 103.668 22.888 104.853 22.888Z" fill="white"/>
<path d="M50.1925 16.3452V17.6332H46.6914V9.08337C46.6914 12.0657 48.0707 14.7107 50.1925 16.3437V16.3452Z" fill="white"/>
<path d="M50.1925 1.823V16.3452C48.0707 14.7107 46.6914 12.0672 46.6914 9.08486C46.6914 6.10253 48.0707 3.45753 50.1925 1.82453V1.823Z" fill="white"/>
<path d="M49.1875 20.0713C49.1875 20.4776 48.826 20.8073 48.3799 20.8073C47.9337 20.8073 47.5723 20.4776 47.5723 20.0713C47.5723 19.8857 47.6479 19.7155 47.7719 19.5867C47.7931 19.5637 47.8158 19.5438 47.84 19.5254C47.9821 19.4089 48.1712 19.3368 48.3784 19.3368C48.5856 19.3368 48.7731 19.4073 48.9152 19.5239C48.944 19.5545 48.9742 19.5852 49.006 19.6113C49.1179 19.737 49.1845 19.898 49.1845 20.0728L49.1875 20.0713Z" fill="white"/>
<path d="M50.063 19.8842L49.0164 21.83H47.7974L46.8008 19.8643C46.8598 19.8735 46.9203 19.8781 46.9823 19.8781C47.2817 19.8781 47.557 19.7677 47.7717 19.5852C47.6477 19.714 47.5721 19.8827 47.5721 20.0697C47.5721 20.4761 47.9335 20.8057 48.3797 20.8057C48.8258 20.8057 49.1873 20.4761 49.1873 20.0697C49.1873 19.8949 49.1208 19.7339 49.0088 19.6082C49.2251 19.7968 49.5034 19.9103 49.8089 19.9103C49.8966 19.9103 49.9798 19.9011 50.063 19.8827V19.8842Z" fill="white"/>
<path d="M48.8418 22.1504L48.4758 22.8297C48.4365 22.9017 48.3366 22.9002 48.3003 22.8281L47.957 22.1519H48.8403L48.8418 22.1504Z" fill="white"/>
<path d="M46.6406 15.4069V19.1819C46.6406 19.1819 47.0762 19.6941 47.8203 19.1175V15.413L46.6406 15.4069Z" fill="white"/>
<path d="M50.2695 15.3365V19.1821C50.2695 19.1821 49.8339 19.7034 49.0898 19.1162V15.3411L50.2695 15.335V15.3365Z" fill="white"/>
<path d="M53.3352 0.315918C52.753 0.453918 52.1934 0.654785 51.6641 0.910851C51.723 2.24945 52.7076 3.34578 53.9961 3.58958L53.3367 0.315918H53.3352Z" fill="white"/>
<path d="M53.9965 3.6033C52.7171 3.35643 51.7234 2.25703 51.6629 0.910767C51.1412 1.16223 50.6481 1.4689 50.1914 1.82157V8.73843C50.1914 6.2529 51.8338 4.17523 54.0086 3.66463L53.9965 3.60177V3.6033Z" fill="white"/>
<path d="M57.3941 0.390904C56.6999 0.199237 55.971 0.0949707 55.2193 0.0949707C54.8503 0.0949707 54.4858 0.121037 54.1289 0.168571L54.7974 3.54037C54.9002 3.5327 55.0031 3.52964 55.1074 3.52964C55.1815 3.52964 55.2571 3.53117 55.3297 3.53577C56.5366 3.19537 57.4228 2.09137 57.4228 0.781904C57.4228 0.648504 57.4138 0.518171 57.3956 0.390904H57.3941Z" fill="white"/>
</g>
<defs>
<clipPath id="clip0_668_7897">
<rect width="107" height="23" fill="white"/>
</clipPath>
</defs>
</svg>
